/* XPM */
static char * m2_kiosk_app_xpm[] = {
"32 32 80 1",
" 	c None",
".	c #175B9A",
"+	c #396D9D",
"@	c #29629A",
"#	c #4C7EA7",
"$	c #396FA0",
"%	c #23609B",
"&	c #4B7AA1",
"*	c #4C80AD",
"=	c #346BA1",
"-	c #1E5D99",
";	c #4A78A0",
">	c #4F7DA3",
",	c #4C80AC",
"'	c #2D679D",
")	c #1B5C9A",
"!	c #4676A1",
"~	c #4F7CA1",
"{	c #4C7FA9",
"]	c #4B7FAC",
"^	c #2A649D",
"/	c #43739E",
"(	c #4F7DA2",
"_	c #4C7FAA",
":	c #497DAA",
"<	c #23619C",
"[	c #3F709F",
"}	c #487CAA",
"|	c #205F9A",
"1	c #386B9C",
"2	c #4479A8",
"3	c #1B5D9B",
"4	c #34699C",
"5	c #4277A6",
"6	c #185B99",
"7	c #2D659B",
"8	c #4E7CA2",
"9	c #3D73A5",
"0	c #4D7CA2",
"a	c #4F7CA2",
"b	c #396FA1",
"c	c #4E7BA0",
"d	c #6BC9F1",
"e	c #4676A0",
"f	c #6CC9F1",
"g	c #6AC9F1",
"h	c #4C7FAB",
"i	c #56BFEE",
"j	c #3F709E",
"k	c #64C6F0",
"l	c #29B1EB",
"m	c #57C0EF",
"n	c #66C7F0",
"o	c #36B4EC",
"p	c #5CC2EF",
"q	c #4479A7",
"r	c #366A9D",
"s	c #69C8F1",
"t	c #3DB6EC",
"u	c #2EB2EB",
"v	c #60C4F0",
"w	c #5987AE",
"x	c #6D91AC",
"y	c #507DA2",
"z	c #4E7A9E",
"A	c #42B8ED",
"B	c #31B3EB",
"C	c #65C6F0",
"D	c #7599B3",
"E	c #779AB4",
"F	c #698EAA",
"G	c #4BBBED",
"H	c #7697AF",
"I	c #51BDEE",
"J	c #3EB6EC",
"K	c #58C0EF",
"L	c #4DBCEE",
"M	c #62C5F0",
"N	c #5FC4F0",
"O	c #2BB1EB",
"                                ",
"                                ",
"                                ",
" ..                           . ",
" ...                         .. ",
" ....                       ... ",
" .....                     .... ",
" .....                    ..... ",
" +.....                  .....@ ",
" #$.....                .....%& ",
" #*=.....              .....-;> ",
"  *,'.....            .....)!>~ ",
"  {*]^.....           ...../>(  ",
"   _*:<.....         .....[>>   ",
"    ,*}|.....       .....1>(    ",
"     _*23.....     .....4>>     ",
"      **56....    .....78>      ",
"       ,*9.....  .....@0>a      ",
"        ,*b..........%&>c       ",
"         **=........-;>a        ",
" dd       *,'......)e>a       f ",
" gd       h*]^...../>a       dd ",
" idd       {*:<...j>>       fdk ",
" lmdd       ,*}|.1>(       ddno ",
" llpdd       h*qr>>       fdstl ",
" lluvdd       ,wxyz      fdgAll ",
" lllBCdd       DEF       ddGlll ",
" llllondd       H       ddIllll ",
" lllllJsdd             ddKlllll ",
"  lllllLdd            MMNOlllll ",
"                                ",
"                                "};
