<?xml version="1.0" encoding="UTF-8" standalone="no"?>
<!-- Created with Inkscape (http://www.inkscape.org/) -->

<svg
   xmlns:dc="http://purl.org/dc/elements/1.1/"
   xmlns:cc="http://creativecommons.org/ns#"
   xmlns:rdf="http://www.w3.org/1999/02/22-rdf-syntax-ns#"
   xmlns:svg="http://www.w3.org/2000/svg"
   xmlns="http://www.w3.org/2000/svg"
   xmlns:sodipodi="http://sodipodi.sourceforge.net/DTD/sodipodi-0.dtd"
   xmlns:inkscape="http://www.inkscape.org/namespaces/inkscape"
   width="11.654113mm"
   height="13.861489mm"
   viewBox="0 0 11.654113 13.861489"
   version="1.1"
   id="svg834"
   inkscape:version="0.92.5 (2060ec1f9f, 2020-04-08)"
   sodipodi:docname="ada_coin.svg"
   inkscape:export-filename="/home/maarten/src/dbus_glade_test_2/ada_coin.png"
   inkscape:export-xdpi="72"
   inkscape:export-ydpi="72">
  <defs
     id="defs828" />
  <sodipodi:namedview
     id="base"
     pagecolor="#ffffff"
     bordercolor="#666666"
     borderopacity="1.0"
     inkscape:pageopacity="0.0"
     inkscape:pageshadow="2"
     inkscape:zoom="3.959798"
     inkscape:cx="-59.840106"
     inkscape:cy="32.374601"
     inkscape:document-units="mm"
     inkscape:current-layer="layer1"
     showgrid="false"
     fit-margin-top="0"
     fit-margin-left="0"
     fit-margin-right="0"
     fit-margin-bottom="0"
     inkscape:window-width="3768"
     inkscape:window-height="2089"
     inkscape:window-x="2632"
     inkscape:window-y="34"
     inkscape:window-maximized="1" />
  <metadata
     id="metadata831">
    <rdf:RDF>
      <cc:Work
         rdf:about="">
        <dc:format>image/svg+xml</dc:format>
        <dc:type
           rdf:resource="http://purl.org/dc/dcmitype/StillImage" />
        <dc:title></dc:title>
      </cc:Work>
    </rdf:RDF>
  </metadata>
  <g
     inkscape:label="Layer 1"
     inkscape:groupmode="layer"
     id="layer1"
     transform="translate(-18.284029,-266.4428)">
    <g
       style="fill:#ffffff;fill-opacity:1"
       id="g4"
       transform="matrix(0.08335231,0,0,0.08335231,15.992582,265.64262)">
      <path
         style="fill:#ffffff;fill-opacity:1"
         id="path2"
         d="m 167.3,109.9 c -0.2,-3.8 -3.6,-6.7 -7.5,-6.7 h -21.2 v 0 l -5.8,-14.7 v 0 h 13.1 c 3.8,0 7.3,-2.8 7.5,-6.7 0.2,-4 -3,-7.3 -6.9,-7.3 h -19.2 v 0 L 103.3,14 c -1,-2.6 -3.6,-4.4 -6.5,-4.4 -2.8,0 -5.4,1.8 -6.5,4.4 l -23,60.4 v 0 H 48.5 c -3.8,0 -7.3,2.8 -7.5,6.7 -0.2,4 3,7.3 6.9,7.3 h 13.7 v 0 L 56,103 v 0 H 35 c -3.8,0 -7.3,2.8 -7.5,6.7 -0.2,4 3,7.3 6.9,7.3 h 16.1 v 0 l -18.8,48.8 c -1.4,3.6 0.4,7.7 4,9.1 0.8,0.4 1.6,0.4 2.4,0.4 2.8,0 5.4,-1.6 6.5,-4.4 l 20.8,-53.8 v 0 h 63.3 v 0 l 21.6,54.4 c 1,2.8 3.6,4.4 6.5,4.4 0.8,0 1.8,-0.2 2.6,-0.4 3.6,-1.4 5.2,-5.4 3.8,-9.1 l -19.6,-49.2 v 0 h 15.9 c 4.7,-0.1 8,-3.3 7.8,-7.3 z M 97.1,36.1 112.2,74.4 v 0 H 82.4 v 0 L 97.1,36.1 c -0.2,0 0,0 0,0 z m -26,67.1 5.6,-14.7 v 0 h 40.7 v 0 l 5.8,14.7 v 0 z"
         inkscape:connector-curvature="0" />
    </g>
  </g>
</svg>
