/* XPM */
static char * m2_kiosk_app_xpm[] = {
"32 32 3 1",
" 	c None",
".	c #175B9A",
"+	c #29B1EB",
"                                ",
"                                ",
" .                              ",
" ..                           . ",
" ...                         .. ",
" ....                       ... ",
" .....                      ... ",
" ......                   ..... ",
" .......                 ...... ",
" .......                ....... ",
" ........             ......... ",
" .........            ......... ",
"  .........          .........  ",
"   .........        ..........  ",
"   ..........      ..........   ",
"    ...........   ..........    ",
"     ..........  ..........     ",
"      ....................      ",
"       ..................       ",
" +      ................      + ",
" ++      ..............      ++ ",
" +++      ............      +++ ",
" +++       ..........      ++++ ",
" +++++      ........      +++++ ",
" ++++++      .......      +++++ ",
" +++++++      .....      ++++++ ",
" +++++++       ...      +++++++ ",
" +++++++++      .       +++++++ ",
" +++++++++             ++++++++ ",
" ++++++++++           +++++++++ ",
"                                ",
"                                "};
