<?xml version="1.0" encoding="UTF-8" standalone="no"?>
<svg
   viewBox="0 0 480 480.00001"
   height="480"
   width="480"
   xml:space="preserve"
   id="svg2"
   version="1.1"
   sodipodi:docname="m2tec_icon.svg"
   inkscape:version="1.2.2 (b0a8486541, 2022-12-01)"
   xmlns:inkscape="http://www.inkscape.org/namespaces/inkscape"
   xmlns:sodipodi="http://sodipodi.sourceforge.net/DTD/sodipodi-0.dtd"
   xmlns="http://www.w3.org/2000/svg"
   xmlns:svg="http://www.w3.org/2000/svg"
   xmlns:rdf="http://www.w3.org/1999/02/22-rdf-syntax-ns#"
   xmlns:cc="http://creativecommons.org/ns#"
   xmlns:dc="http://purl.org/dc/elements/1.1/"><sodipodi:namedview
     id="namedview261"
     pagecolor="#ffffff"
     bordercolor="#000000"
     borderopacity="0.25"
     inkscape:showpageshadow="2"
     inkscape:pageopacity="0.0"
     inkscape:pagecheckerboard="0"
     inkscape:deskcolor="#d1d1d1"
     showgrid="false"
     inkscape:zoom="1.1680501"
     inkscape:cx="124.56657"
     inkscape:cy="299.21662"
     inkscape:window-width="3840"
     inkscape:window-height="2096"
     inkscape:window-x="0"
     inkscape:window-y="0"
     inkscape:window-maximized="1"
     inkscape:current-layer="layer2" /><metadata
     id="metadata8"><rdf:RDF><cc:Work
         rdf:about=""><dc:format>image/svg+xml</dc:format><dc:type
           rdf:resource="http://purl.org/dc/dcmitype/StillImage" /></cc:Work></rdf:RDF></metadata><defs
     id="defs6"><clipPath
       id="clipPath40"
       clipPathUnits="userSpaceOnUse"><path
         id="path38"
         d="m 267,455 h 3 v 5 h -3 z" /></clipPath><clipPath
       id="clipPath46"
       clipPathUnits="userSpaceOnUse"><path
         id="path44"
         d="m 267.941,459.051 c 0,-0.063 0.004,-0.125 0.012,-0.184 0.063,-0.722 0.664,-1.187 1.293,-1.199 h 0.067 c 0.222,0.004 0.453,0.07 0.66,0.203 l -2.032,-2.293 z" /></clipPath><clipPath
       id="clipPath56"
       clipPathUnits="userSpaceOnUse"><path
         id="path54"
         d="M 0,0 H 596 V 842 H 0 Z" /></clipPath><clipPath
       id="clipPath66"
       clipPathUnits="userSpaceOnUse"><path
         id="path64"
         d="m 268,455.105 h 2 V 459 h -2 z" /></clipPath><clipPath
       id="clipPath78"
       clipPathUnits="userSpaceOnUse"><path
         id="path76"
         d="m 267,458 h 23 v 22 h -23 z" /></clipPath><clipPath
       id="clipPath84"
       clipPathUnits="userSpaceOnUse"><path
         id="path82"
         d="m 267.941,459.051 v 3.84 l 7.36,8.308 -7.352,-8.308 v -3.903 c 0,-0.039 0,-0.082 0.004,-0.121 -0.008,0.059 -0.012,0.121 -0.012,0.184 m 21.414,20.719 h -6.468 l 0.054,0.062 h 6.469 l -1.176,-1.324 z" /></clipPath><clipPath
       id="clipPath94"
       clipPathUnits="userSpaceOnUse"><path
         id="path92"
         d="M 0,0 H 596 V 842 H 0 Z" /></clipPath><clipPath
       id="clipPath104"
       clipPathUnits="userSpaceOnUse"><path
         id="path102"
         d="m 268,458.469 h 21.684 V 480 H 268 Z" /></clipPath><clipPath
       id="clipPath116"
       clipPathUnits="userSpaceOnUse"><path
         id="path114"
         d="m 302,476 h 1 v 1 h -1 z" /></clipPath><clipPath
       id="clipPath122"
       clipPathUnits="userSpaceOnUse"><path
         id="path120"
         d="m 302.656,476.293 0.004,-0.004 z" /></clipPath><clipPath
       id="clipPath132"
       clipPathUnits="userSpaceOnUse"><path
         id="path130"
         d="M 0,0 H 596 V 842 H 0 Z" /></clipPath><clipPath
       id="clipPath142"
       clipPathUnits="userSpaceOnUse"><path
         id="path140"
         d="M 302.164,476 H 303 v 0.707 h -0.836 z" /></clipPath><clipPath
       id="clipPath154"
       clipPathUnits="userSpaceOnUse"><path
         id="path152"
         d="m 302,437 h 36 v 40 h -36 z" /></clipPath><clipPath
       id="clipPath160"
       clipPathUnits="userSpaceOnUse"><path
         id="path158"
         d="m 305.719,472.836 0.004,0.008 31.398,-35.344 v -0.141 z m -3.059,3.453 0.113,-0.129 2.426,-2.73 -0.004,-0.004 z" /></clipPath><clipPath
       id="clipPath170"
       clipPathUnits="userSpaceOnUse"><path
         id="path168"
         d="M 0,0 H 596 V 842 H 0 Z" /></clipPath><clipPath
       id="clipPath180"
       clipPathUnits="userSpaceOnUse"><path
         id="path178"
         d="M 302.406,430 H 337 v 46.707 h -34.594 z" /></clipPath><clipPath
       id="clipPath192"
       clipPathUnits="userSpaceOnUse"><path
         id="path190"
         d="m 267,437 h 36 v 40 h -36 z" /></clipPath><clipPath
       id="clipPath198"
       clipPathUnits="userSpaceOnUse"><path
         id="path196"
         d="m 267.941,437.5 31.387,35.328 0.004,-0.004 -31.391,-35.465 z m 31.907,35.914 2.441,2.746 -2.437,-2.75 z" /></clipPath><clipPath
       id="clipPath208"
       clipPathUnits="userSpaceOnUse"><path
         id="path206"
         d="M 0,0 H 596 V 842 H 0 Z" /></clipPath><clipPath
       id="clipPath218"
       clipPathUnits="userSpaceOnUse"><path
         id="path216"
         d="m 268,437.105 h 34.887 v 39.602 H 268 Z" /></clipPath><clipPath
       id="clipPath230"
       clipPathUnits="userSpaceOnUse"><path
         id="path228"
         d="m 305,473 h 3 v 2 h -3 z" /></clipPath><clipPath
       id="clipPath236"
       clipPathUnits="userSpaceOnUse"><path
         id="path234"
         d="m 305.742,474.039 0.797,0.899 0.52,-0.59 -0.793,-0.895 z" /></clipPath><clipPath
       id="clipPath246"
       clipPathUnits="userSpaceOnUse"><path
         id="path244"
         d="M 0,0 H 596 V 842 H 0 Z" /></clipPath><clipPath
       id="clipPath256"
       clipPathUnits="userSpaceOnUse"><path
         id="path254"
         d="M 305.285,473.105 H 307 V 475 h -1.715 z" /></clipPath><clipPath
       id="clipPath268"
       clipPathUnits="userSpaceOnUse"><path
         id="path266"
         d="m 305,472 h 2 v 3 h -2 z" /></clipPath><clipPath
       id="clipPath274"
       clipPathUnits="userSpaceOnUse"><path
         id="path272"
         d="m 305.199,473.43 0.543,0.609 0.524,-0.586 -0.543,-0.609 z" /></clipPath><clipPath
       id="clipPath284"
       clipPathUnits="userSpaceOnUse"><path
         id="path282"
         d="M 0,0 H 596 V 842 H 0 Z" /></clipPath><clipPath
       id="clipPath294"
       clipPathUnits="userSpaceOnUse"><path
         id="path292"
         d="m 305,472.387 h 1.727 V 474 H 305 Z" /></clipPath><clipPath
       id="clipPath306"
       clipPathUnits="userSpaceOnUse"><path
         id="path304"
         d="m 305,472 h 1 v 2 h -1 z" /></clipPath><clipPath
       id="clipPath312"
       clipPathUnits="userSpaceOnUse"><path
         id="path310"
         d="m 305.195,473.426 0.004,0.004 0.524,-0.586 -0.004,-0.008 z" /></clipPath><clipPath
       id="clipPath322"
       clipPathUnits="userSpaceOnUse"><path
         id="path320"
         d="M 0,0 H 596 V 842 H 0 Z" /></clipPath><clipPath
       id="clipPath332"
       clipPathUnits="userSpaceOnUse"><path
         id="path330"
         d="m 305,472.387 h 1 v 1.441 h -1 z" /></clipPath><clipPath
       id="clipPath344"
       clipPathUnits="userSpaceOnUse"><path
         id="path342"
         d="m 305,472 h 1 v 2 h -1 z" /></clipPath><clipPath
       id="clipPath350"
       clipPathUnits="userSpaceOnUse"><path
         id="path348"
         d="m 305.195,473.422 v 0.004 l 0.524,-0.59 h -0.004 z" /></clipPath><clipPath
       id="clipPath360"
       clipPathUnits="userSpaceOnUse"><path
         id="path358"
         d="M 0,0 H 596 V 842 H 0 Z" /></clipPath><clipPath
       id="clipPath370"
       clipPathUnits="userSpaceOnUse"><path
         id="path368"
         d="m 305,472.387 h 1 v 1.441 h -1 z" /></clipPath><clipPath
       id="clipPath382"
       clipPathUnits="userSpaceOnUse"><path
         id="path380"
         d="m 302,467 h 2 v 3 h -2 z" /></clipPath><clipPath
       id="clipPath388"
       clipPathUnits="userSpaceOnUse"><path
         id="path386"
         d="m 302.52,469.238 0.011,0.012 1.352,-1.52 v -0.027 z" /></clipPath><clipPath
       id="clipPath398"
       clipPathUnits="userSpaceOnUse"><path
         id="path396"
         d="M 0,0 H 596 V 842 H 0 Z" /></clipPath><clipPath
       id="clipPath408"
       clipPathUnits="userSpaceOnUse"><path
         id="path406"
         d="M 302.164,467.348 H 304 v 2.16 h -1.836 z" /></clipPath><clipPath
       id="clipPath420"
       clipPathUnits="userSpaceOnUse"><path
         id="path418"
         d="m 302,469 h 1 v 1 h -1 z" /></clipPath><clipPath
       id="clipPath426"
       clipPathUnits="userSpaceOnUse"><path
         id="path424"
         d="m 302.52,469.238 0.011,0.012 z" /></clipPath><clipPath
       id="clipPath436"
       clipPathUnits="userSpaceOnUse"><path
         id="path434"
         d="M 0,0 H 596 V 842 H 0 Z" /></clipPath><clipPath
       id="clipPath446"
       clipPathUnits="userSpaceOnUse"><path
         id="path444"
         d="m 302.164,469 h 0.719 v 0.508 h -0.719 z" /></clipPath><clipPath
       id="clipPath458"
       clipPathUnits="userSpaceOnUse"><path
         id="path456"
         d="m 297,472 h 3 v 4 h -3 z" /></clipPath><clipPath
       id="clipPath464"
       clipPathUnits="userSpaceOnUse"><path
         id="path462"
         d="m 297.742,474.613 0.52,0.586 1.586,-1.785 -0.52,-0.586 z" /></clipPath><clipPath
       id="clipPath474"
       clipPathUnits="userSpaceOnUse"><path
         id="path472"
         d="M 0,0 H 596 V 842 H 0 Z" /></clipPath><clipPath
       id="clipPath484"
       clipPathUnits="userSpaceOnUse"><path
         id="path482"
         d="M 297.363,472.387 H 300 v 3.121 h -2.637 z" /></clipPath><clipPath
       id="clipPath496"
       clipPathUnits="userSpaceOnUse"><path
         id="path494"
         d="m 299,472 h 1 v 2 h -1 z" /></clipPath><clipPath
       id="clipPath502"
       clipPathUnits="userSpaceOnUse"><path
         id="path500"
         d="m 299.328,472.828 0.52,0.586 0.004,-0.004 -0.52,-0.586 z" /></clipPath><clipPath
       id="clipPath512"
       clipPathUnits="userSpaceOnUse"><path
         id="path510"
         d="M 0,0 H 596 V 842 H 0 Z" /></clipPath><clipPath
       id="clipPath522"
       clipPathUnits="userSpaceOnUse"><path
         id="path520"
         d="M 299.043,472.387 H 300 v 1.441 h -0.957 z" /></clipPath><clipPath
       id="clipPath534"
       clipPathUnits="userSpaceOnUse"><path
         id="path532"
         d="m 299,469 h 4 v 5 h -4 z" /></clipPath><clipPath
       id="clipPath540"
       clipPathUnits="userSpaceOnUse"><path
         id="path538"
         d="m 299.332,472.824 0.52,0.586 v -0.004 l -0.504,-0.57 2.664,-3 -0.016,-0.012 z" /></clipPath><clipPath
       id="clipPath550"
       clipPathUnits="userSpaceOnUse"><path
         id="path548"
         d="M 0,0 H 596 V 842 H 0 Z" /></clipPath><clipPath
       id="clipPath560"
       clipPathUnits="userSpaceOnUse"><path
         id="path558"
         d="M 299.043,470 H 302 v 3.828 h -2.957 z" /></clipPath><clipPath
       id="clipPath572"
       clipPathUnits="userSpaceOnUse"><path
         id="path570"
         d="m 301,469 h 2 v 1 h -2 z" /></clipPath><clipPath
       id="clipPath578"
       clipPathUnits="userSpaceOnUse"><path
         id="path576"
         d="m 301.996,469.824 0.016,0.012 0.519,-0.586 -0.011,-0.012 z" /></clipPath><clipPath
       id="clipPath588"
       clipPathUnits="userSpaceOnUse"><path
         id="path586"
         d="M 0,0 H 596 V 842 H 0 Z" /></clipPath><clipPath
       id="clipPath598"
       clipPathUnits="userSpaceOnUse"><path
         id="path596"
         d="m 302,469 h 0.883 v 1 H 302 Z" /></clipPath><clipPath
       id="clipPath610"
       clipPathUnits="userSpaceOnUse"><path
         id="path608"
         d="M 267.941,416.945 H 392.593 V 527.648 H 267.941 Z" /></clipPath><clipPath
       id="clipPath620"
       clipPathUnits="userSpaceOnUse"><path
         id="path618"
         d="M 0,0 H 596 V 842 H 0 Z" /></clipPath><clipPath
       id="clipPath632"
       clipPathUnits="userSpaceOnUse"><path
         id="path630"
         d="m 339.785,429.012 h 50.336 v 8.367 h -50.336 z" /></clipPath><clipPath
       id="clipPath642"
       clipPathUnits="userSpaceOnUse"><path
         id="path640"
         d="M 0,0 H 596 V 842 H 0 Z" /></clipPath><clipPath
       id="clipPath656"
       clipPathUnits="userSpaceOnUse"><path
         id="path654"
         d="m 340,429 h 6 v 5 h -6 z" /></clipPath><clipPath
       id="clipPath662"
       clipPathUnits="userSpaceOnUse"><path
         id="path660"
         d="m 345.656,429.012 c -2.672,0 -4.687,1.59 -5.144,4.035 h 0.027 c 0.465,-2.445 2.481,-4.035 5.152,-4.035 z" /></clipPath><clipPath
       id="clipPath672"
       clipPathUnits="userSpaceOnUse"><path
         id="path670"
         d="M 0,0 H 596 V 842 H 0 Z" /></clipPath><clipPath
       id="clipPath682"
       clipPathUnits="userSpaceOnUse"><path
         id="path680"
         d="m 340.086,429 h 38.641 v 4.508 h -38.641 z" /></clipPath><clipPath
       id="clipPath694"
       clipPathUnits="userSpaceOnUse"><path
         id="path692"
         d="m 340,429 h 51 v 5 h -51 z" /></clipPath><clipPath
       id="clipPath700"
       clipPathUnits="userSpaceOnUse"><path
         id="path698"
         d="m 345.691,429.012 c -2.671,0 -4.687,1.59 -5.152,4.035 h 49.582 c -0.652,-0.949 -1.5,-1.727 -2.547,-2.332 -1.961,-1.133 -5,-1.703 -9.105,-1.703 z" /></clipPath><clipPath
       id="clipPath710"
       clipPathUnits="userSpaceOnUse"><path
         id="path708"
         d="M 0,0 H 596 V 842 H 0 Z" /></clipPath><clipPath
       id="clipPath720"
       clipPathUnits="userSpaceOnUse"><path
         id="path718"
         d="M 340.086,429 H 390 v 4.508 h -49.914 z" /></clipPath><clipPath
       id="clipPath732"
       clipPathUnits="userSpaceOnUse"><path
         id="path730"
         d="M 267.941,416.945 H 392.593 V 527.648 H 267.941 Z" /></clipPath><clipPath
       id="clipPath742"
       clipPathUnits="userSpaceOnUse"><path
         id="path740"
         d="M 0,0 H 596 V 842 H 0 Z" /></clipPath><clipPath
       id="clipPath754"
       clipPathUnits="userSpaceOnUse"><path
         id="path752"
         d="m 267.949,457.668 h 21.406 v 22.102 h -21.406 z" /></clipPath><clipPath
       id="clipPath764"
       clipPathUnits="userSpaceOnUse"><path
         id="path762"
         d="M 0,0 H 596 V 842 H 0 Z" /></clipPath><clipPath
       id="clipPath780"
       clipPathUnits="userSpaceOnUse"><path
         id="path778"
         d="m 267,457 h 4 v 2 h -4 z" /></clipPath><clipPath
       id="clipPath786"
       clipPathUnits="userSpaceOnUse"><path
         id="path784"
         d="m 269.246,457.668 c -0.629,0.012 -1.23,0.477 -1.293,1.199 0.094,-0.691 0.699,-1.133 1.32,-1.133 0.325,0 0.657,0.121 0.918,0.387 l -0.218,-0.25 c -0.207,-0.133 -0.434,-0.199 -0.66,-0.203 z" /></clipPath><clipPath
       id="clipPath796"
       clipPathUnits="userSpaceOnUse"><path
         id="path794"
         d="M 0,0 H 596 V 842 H 0 Z" /></clipPath><clipPath
       id="clipPath806"
       clipPathUnits="userSpaceOnUse"><path
         id="path804"
         d="m 268,457.266 h 2 V 459 h -2 z" /></clipPath><clipPath
       id="clipPath818"
       clipPathUnits="userSpaceOnUse"><path
         id="path816"
         d="m 267,457 h 23 v 23 h -23 z" /></clipPath><clipPath
       id="clipPath824"
       clipPathUnits="userSpaceOnUse"><path
         id="path822"
         d="m 267.953,458.867 c -0.004,0.039 -0.004,0.082 -0.004,0.121 v 3.903 l 7.352,8.308 7.586,8.571 h 6.468 l -1.121,-1.262 -18.043,-20.387 c -0.261,-0.266 -0.593,-0.387 -0.918,-0.387 -0.621,0 -1.226,0.442 -1.32,1.133" /></clipPath><clipPath
       id="clipPath834"
       clipPathUnits="userSpaceOnUse"><path
         id="path832"
         d="M 0,0 H 596 V 842 H 0 Z" /></clipPath><clipPath
       id="clipPath844"
       clipPathUnits="userSpaceOnUse"><path
         id="path842"
         d="m 268,457.266 h 21.684 V 480 H 268 Z" /></clipPath><clipPath
       id="clipPath856"
       clipPathUnits="userSpaceOnUse"><path
         id="path854"
         d="M 267.941,416.945 H 392.593 V 527.648 H 267.941 Z" /></clipPath><clipPath
       id="clipPath866"
       clipPathUnits="userSpaceOnUse"><path
         id="path864"
         d="M 0,0 H 596 V 842 H 0 Z" /></clipPath><clipPath
       id="clipPath878"
       clipPathUnits="userSpaceOnUse"><path
         id="path876"
         d="m 335,455 h 3 v 4 h -3 z" /></clipPath><clipPath
       id="clipPath884"
       clipPathUnits="userSpaceOnUse"><path
         id="path882"
         d="m 337.102,455.578 -2.032,2.293 c 0.207,-0.133 0.434,-0.199 0.66,-0.203 h 0.063 c 0.437,0.008 0.863,0.234 1.102,0.617 0.07,0.024 0.14,0.055 0.207,0.09 z" /></clipPath><clipPath
       id="clipPath894"
       clipPathUnits="userSpaceOnUse"><path
         id="path892"
         d="M 0,0 H 596 V 842 H 0 Z" /></clipPath><clipPath
       id="clipPath904"
       clipPathUnits="userSpaceOnUse"><path
         id="path902"
         d="m 335,455.105 h 2 v 3.602 h -2 z" /></clipPath><clipPath
       id="clipPath916"
       clipPathUnits="userSpaceOnUse"><path
         id="path914"
         d="m 336,458 h 2 v 2 h -2 z" /></clipPath><clipPath
       id="clipPath922"
       clipPathUnits="userSpaceOnUse"><path
         id="path920"
         d="m 337.086,458.867 c 0.012,0.059 0.016,0.121 0.016,0.184 v -0.676 c -0.067,-0.035 -0.137,-0.066 -0.207,-0.09 0.105,0.168 0.175,0.363 0.191,0.582" /></clipPath><clipPath
       id="clipPath932"
       clipPathUnits="userSpaceOnUse"><path
         id="path930"
         d="M 0,0 H 596 V 842 H 0 Z" /></clipPath><clipPath
       id="clipPath942"
       clipPathUnits="userSpaceOnUse"><path
         id="path940"
         d="M 336.484,458 H 337 v 5 h -0.516 z" /></clipPath><clipPath
       id="clipPath954"
       clipPathUnits="userSpaceOnUse"><path
         id="path952"
         d="m 315,458 h 23 v 22 h -23 z" /></clipPath><clipPath
       id="clipPath960"
       clipPathUnits="userSpaceOnUse"><path
         id="path958"
         d="m 337.094,458.988 v 3.903 l -7.336,8.297 7.344,-8.297 v -3.84 c 0,-0.063 -0.004,-0.125 -0.016,-0.184 0.004,0.039 0.008,0.082 0.008,0.121 m -21.461,20.844 h 6.469 l 0.054,-0.062 h -6.468 l 1.117,-1.262 z" /></clipPath><clipPath
       id="clipPath970"
       clipPathUnits="userSpaceOnUse"><path
         id="path968"
         d="M 0,0 H 596 V 842 H 0 Z" /></clipPath><clipPath
       id="clipPath980"
       clipPathUnits="userSpaceOnUse"><path
         id="path978"
         d="M 315.363,458.469 H 337 V 480 h -21.637 z" /></clipPath><clipPath
       id="clipPath992"
       clipPathUnits="userSpaceOnUse"><path
         id="path990"
         d="m 315.688,457.668 h 21.406 v 22.102 h -21.406 z" /></clipPath><clipPath
       id="clipPath1002"
       clipPathUnits="userSpaceOnUse"><path
         id="path1000"
         d="M 0,0 H 596 V 842 H 0 Z" /></clipPath><clipPath
       id="clipPath1016"
       clipPathUnits="userSpaceOnUse"><path
         id="path1014"
         d="m 334,457 h 3 v 2 h -3 z" /></clipPath><clipPath
       id="clipPath1022"
       clipPathUnits="userSpaceOnUse"><path
         id="path1020"
         d="m 335.73,457.668 c -0.226,0.004 -0.453,0.07 -0.66,0.203 l -0.218,0.25 c 0.261,-0.266 0.593,-0.387 0.918,-0.387 0.414,0 0.82,0.196 1.074,0.532 0.019,0.007 0.035,0.011 0.051,0.019 -0.239,-0.383 -0.665,-0.609 -1.102,-0.617 z" /></clipPath><clipPath
       id="clipPath1032"
       clipPathUnits="userSpaceOnUse"><path
         id="path1030"
         d="M 0,0 H 596 V 842 H 0 Z" /></clipPath><clipPath
       id="clipPath1042"
       clipPathUnits="userSpaceOnUse"><path
         id="path1040"
         d="m 335,457.266 h 2 v 1.441 h -2 z" /></clipPath><clipPath
       id="clipPath1054"
       clipPathUnits="userSpaceOnUse"><path
         id="path1052"
         d="m 336,458 h 2 v 1 h -2 z" /></clipPath><clipPath
       id="clipPath1060"
       clipPathUnits="userSpaceOnUse"><path
         id="path1058"
         d="m 337.086,458.867 c -0.016,-0.219 -0.086,-0.414 -0.191,-0.582 -0.016,-0.008 -0.032,-0.012 -0.051,-0.019 0.125,0.172 0.215,0.371 0.242,0.601" /></clipPath><clipPath
       id="clipPath1070"
       clipPathUnits="userSpaceOnUse"><path
         id="path1068"
         d="M 0,0 H 596 V 842 H 0 Z" /></clipPath><clipPath
       id="clipPath1080"
       clipPathUnits="userSpaceOnUse"><path
         id="path1078"
         d="M 336.484,458 H 337 v 1 h -0.516 z" /></clipPath><clipPath
       id="clipPath1092"
       clipPathUnits="userSpaceOnUse"><path
         id="path1090"
         d="m 315,457 h 23 v 23 h -23 z" /></clipPath><clipPath
       id="clipPath1098"
       clipPathUnits="userSpaceOnUse"><path
         id="path1096"
         d="m 334.852,458.121 -18.047,20.387 -1.117,1.262 h 6.468 l 7.586,-8.571 7.352,-8.308 v -3.903 c 0,-0.039 -0.004,-0.082 -0.008,-0.121 -0.027,-0.23 -0.117,-0.429 -0.242,-0.601 -0.254,-0.336 -0.66,-0.532 -1.074,-0.532 -0.325,0 -0.657,0.121 -0.918,0.387" /></clipPath><clipPath
       id="clipPath1108"
       clipPathUnits="userSpaceOnUse"><path
         id="path1106"
         d="M 0,0 H 596 V 842 H 0 Z" /></clipPath><clipPath
       id="clipPath1118"
       clipPathUnits="userSpaceOnUse"><path
         id="path1116"
         d="M 315.363,457.266 H 337 V 480 h -21.637 z" /></clipPath><clipPath
       id="clipPath1130"
       clipPathUnits="userSpaceOnUse"><path
         id="path1128"
         d="M 267.941,416.945 H 392.593 V 527.648 H 267.941 Z" /></clipPath><clipPath
       id="clipPath1140"
       clipPathUnits="userSpaceOnUse"><path
         id="path1138"
         d="M 0,0 H 596 V 842 H 0 Z" /></clipPath></defs><g
     inkscape:groupmode="layer"
     id="layer2"
     inkscape:label="Layer 1" /><g
     id="g856"
     transform="matrix(1.7691942,0,0,1.7691942,-10.466473,-11.329636)"><path
       d="m 13.607061,266.14893 v -80.03365 c 0,-4.98025 5.556897,-7.3285 8.516388,-3.59845 L 92.929554,271.561 H 18.48782 c -2.700859,0 -4.880759,-2.42638 -4.880759,-5.41207"
       style="fill:#29b1eb;fill-opacity:1;fill-rule:nonzero;stroke:none;stroke-width:3.89804"
       id="path32" /><path
       d="M 132.31554,155.6251 21.661606,16.474046 c -2.800617,-3.536763 -8.054545,-1.336567 -8.054545,3.372262 V 96.89016 L 141.40831,257.58668 269.20956,96.89016 V 19.846308 c 0,-4.708829 -5.23915,-6.909025 -8.05454,-3.372262 L 150.50108,155.6251 c -4.83273,6.07007 -13.34912,6.07007 -18.18554,0"
       style="display:inline;fill:#175b9a;fill-opacity:1;fill-rule:nonzero;stroke:none;stroke-width:3.89804"
       id="path30" /><g
       id="g850"
       transform="matrix(3.6947456,0,0,4.1125148,-976.36677,-1701.7552)"><g
         clip-path="url(#clipPath856)"
         id="g852"><g
           id="g858"><g
             id="g860"><g
               clip-path="url(#clipPath866)"
               id="g862"><g
                 id="g868"><path
                   id="path870"
                   style="fill:#29b1eb;fill-opacity:1;fill-rule:nonzero;stroke:none"
                   d="m 337.102,478.516 v -19.461 c 0,-1.211 -1.508,-1.782 -2.309,-0.875 l -19.16,21.652 h 20.144 c 0.731,0 1.325,-0.59 1.325,-1.316" /></g></g></g></g></g></g></g></svg>
