<?xml version="1.0" encoding="UTF-8" standalone="no"?>
<svg
   viewBox="0 0 480 480.00001"
   height="480"
   width="480"
   xml:space="preserve"
   id="svg2"
   version="1.1"
   sodipodi:docname="m2tec_logo.svg"
   inkscape:version="1.2.2 (b0a8486541, 2022-12-01)"
   xmlns:inkscape="http://www.inkscape.org/namespaces/inkscape"
   xmlns:sodipodi="http://sodipodi.sourceforge.net/DTD/sodipodi-0.dtd"
   xmlns="http://www.w3.org/2000/svg"
   xmlns:svg="http://www.w3.org/2000/svg"
   xmlns:rdf="http://www.w3.org/1999/02/22-rdf-syntax-ns#"
   xmlns:cc="http://creativecommons.org/ns#"
   xmlns:dc="http://purl.org/dc/elements/1.1/"><sodipodi:namedview
     id="namedview261"
     pagecolor="#ffffff"
     bordercolor="#000000"
     borderopacity="0.25"
     inkscape:showpageshadow="2"
     inkscape:pageopacity="0.0"
     inkscape:pagecheckerboard="0"
     inkscape:deskcolor="#d1d1d1"
     showgrid="false"
     inkscape:zoom="1.1680501"
     inkscape:cx="124.13851"
     inkscape:cy="297.93242"
     inkscape:window-width="2560"
     inkscape:window-height="1403"
     inkscape:window-x="0"
     inkscape:window-y="0"
     inkscape:window-maximized="1"
     inkscape:current-layer="layer2" /><metadata
     id="metadata8"><rdf:RDF><cc:Work
         rdf:about=""><dc:format>image/svg+xml</dc:format><dc:type
           rdf:resource="http://purl.org/dc/dcmitype/StillImage" /></cc:Work></rdf:RDF></metadata><defs
     id="defs6"><clipPath
       id="clipPath40"
       clipPathUnits="userSpaceOnUse"><path
         id="path38"
         d="m 267,455 h 3 v 5 h -3 z" /></clipPath><clipPath
       id="clipPath46"
       clipPathUnits="userSpaceOnUse"><path
         id="path44"
         d="m 267.941,459.051 c 0,-0.063 0.004,-0.125 0.012,-0.184 0.063,-0.722 0.664,-1.187 1.293,-1.199 h 0.067 c 0.222,0.004 0.453,0.07 0.66,0.203 l -2.032,-2.293 z" /></clipPath><clipPath
       id="clipPath56"
       clipPathUnits="userSpaceOnUse"><path
         id="path54"
         d="M 0,0 H 596 V 842 H 0 Z" /></clipPath><clipPath
       id="clipPath66"
       clipPathUnits="userSpaceOnUse"><path
         id="path64"
         d="m 268,455.105 h 2 V 459 h -2 z" /></clipPath><clipPath
       id="clipPath78"
       clipPathUnits="userSpaceOnUse"><path
         id="path76"
         d="m 267,458 h 23 v 22 h -23 z" /></clipPath><clipPath
       id="clipPath84"
       clipPathUnits="userSpaceOnUse"><path
         id="path82"
         d="m 267.941,459.051 v 3.84 l 7.36,8.308 -7.352,-8.308 v -3.903 c 0,-0.039 0,-0.082 0.004,-0.121 -0.008,0.059 -0.012,0.121 -0.012,0.184 m 21.414,20.719 h -6.468 l 0.054,0.062 h 6.469 l -1.176,-1.324 z" /></clipPath><clipPath
       id="clipPath94"
       clipPathUnits="userSpaceOnUse"><path
         id="path92"
         d="M 0,0 H 596 V 842 H 0 Z" /></clipPath><clipPath
       id="clipPath104"
       clipPathUnits="userSpaceOnUse"><path
         id="path102"
         d="m 268,458.469 h 21.684 V 480 H 268 Z" /></clipPath><clipPath
       id="clipPath116"
       clipPathUnits="userSpaceOnUse"><path
         id="path114"
         d="m 302,476 h 1 v 1 h -1 z" /></clipPath><clipPath
       id="clipPath122"
       clipPathUnits="userSpaceOnUse"><path
         id="path120"
         d="m 302.656,476.293 0.004,-0.004 z" /></clipPath><clipPath
       id="clipPath132"
       clipPathUnits="userSpaceOnUse"><path
         id="path130"
         d="M 0,0 H 596 V 842 H 0 Z" /></clipPath><clipPath
       id="clipPath142"
       clipPathUnits="userSpaceOnUse"><path
         id="path140"
         d="M 302.164,476 H 303 v 0.707 h -0.836 z" /></clipPath><clipPath
       id="clipPath154"
       clipPathUnits="userSpaceOnUse"><path
         id="path152"
         d="m 302,437 h 36 v 40 h -36 z" /></clipPath><clipPath
       id="clipPath160"
       clipPathUnits="userSpaceOnUse"><path
         id="path158"
         d="m 305.719,472.836 0.004,0.008 31.398,-35.344 v -0.141 z m -3.059,3.453 0.113,-0.129 2.426,-2.73 -0.004,-0.004 z" /></clipPath><clipPath
       id="clipPath170"
       clipPathUnits="userSpaceOnUse"><path
         id="path168"
         d="M 0,0 H 596 V 842 H 0 Z" /></clipPath><clipPath
       id="clipPath180"
       clipPathUnits="userSpaceOnUse"><path
         id="path178"
         d="M 302.406,430 H 337 v 46.707 h -34.594 z" /></clipPath><clipPath
       id="clipPath192"
       clipPathUnits="userSpaceOnUse"><path
         id="path190"
         d="m 267,437 h 36 v 40 h -36 z" /></clipPath><clipPath
       id="clipPath198"
       clipPathUnits="userSpaceOnUse"><path
         id="path196"
         d="m 267.941,437.5 31.387,35.328 0.004,-0.004 -31.391,-35.465 z m 31.907,35.914 2.441,2.746 -2.437,-2.75 z" /></clipPath><clipPath
       id="clipPath208"
       clipPathUnits="userSpaceOnUse"><path
         id="path206"
         d="M 0,0 H 596 V 842 H 0 Z" /></clipPath><clipPath
       id="clipPath218"
       clipPathUnits="userSpaceOnUse"><path
         id="path216"
         d="m 268,437.105 h 34.887 v 39.602 H 268 Z" /></clipPath><clipPath
       id="clipPath230"
       clipPathUnits="userSpaceOnUse"><path
         id="path228"
         d="m 305,473 h 3 v 2 h -3 z" /></clipPath><clipPath
       id="clipPath236"
       clipPathUnits="userSpaceOnUse"><path
         id="path234"
         d="m 305.742,474.039 0.797,0.899 0.52,-0.59 -0.793,-0.895 z" /></clipPath><clipPath
       id="clipPath246"
       clipPathUnits="userSpaceOnUse"><path
         id="path244"
         d="M 0,0 H 596 V 842 H 0 Z" /></clipPath><clipPath
       id="clipPath256"
       clipPathUnits="userSpaceOnUse"><path
         id="path254"
         d="M 305.285,473.105 H 307 V 475 h -1.715 z" /></clipPath><clipPath
       id="clipPath268"
       clipPathUnits="userSpaceOnUse"><path
         id="path266"
         d="m 305,472 h 2 v 3 h -2 z" /></clipPath><clipPath
       id="clipPath274"
       clipPathUnits="userSpaceOnUse"><path
         id="path272"
         d="m 305.199,473.43 0.543,0.609 0.524,-0.586 -0.543,-0.609 z" /></clipPath><clipPath
       id="clipPath284"
       clipPathUnits="userSpaceOnUse"><path
         id="path282"
         d="M 0,0 H 596 V 842 H 0 Z" /></clipPath><clipPath
       id="clipPath294"
       clipPathUnits="userSpaceOnUse"><path
         id="path292"
         d="m 305,472.387 h 1.727 V 474 H 305 Z" /></clipPath><clipPath
       id="clipPath306"
       clipPathUnits="userSpaceOnUse"><path
         id="path304"
         d="m 305,472 h 1 v 2 h -1 z" /></clipPath><clipPath
       id="clipPath312"
       clipPathUnits="userSpaceOnUse"><path
         id="path310"
         d="m 305.195,473.426 0.004,0.004 0.524,-0.586 -0.004,-0.008 z" /></clipPath><clipPath
       id="clipPath322"
       clipPathUnits="userSpaceOnUse"><path
         id="path320"
         d="M 0,0 H 596 V 842 H 0 Z" /></clipPath><clipPath
       id="clipPath332"
       clipPathUnits="userSpaceOnUse"><path
         id="path330"
         d="m 305,472.387 h 1 v 1.441 h -1 z" /></clipPath><clipPath
       id="clipPath344"
       clipPathUnits="userSpaceOnUse"><path
         id="path342"
         d="m 305,472 h 1 v 2 h -1 z" /></clipPath><clipPath
       id="clipPath350"
       clipPathUnits="userSpaceOnUse"><path
         id="path348"
         d="m 305.195,473.422 v 0.004 l 0.524,-0.59 h -0.004 z" /></clipPath><clipPath
       id="clipPath360"
       clipPathUnits="userSpaceOnUse"><path
         id="path358"
         d="M 0,0 H 596 V 842 H 0 Z" /></clipPath><clipPath
       id="clipPath370"
       clipPathUnits="userSpaceOnUse"><path
         id="path368"
         d="m 305,472.387 h 1 v 1.441 h -1 z" /></clipPath><clipPath
       id="clipPath382"
       clipPathUnits="userSpaceOnUse"><path
         id="path380"
         d="m 302,467 h 2 v 3 h -2 z" /></clipPath><clipPath
       id="clipPath388"
       clipPathUnits="userSpaceOnUse"><path
         id="path386"
         d="m 302.52,469.238 0.011,0.012 1.352,-1.52 v -0.027 z" /></clipPath><clipPath
       id="clipPath398"
       clipPathUnits="userSpaceOnUse"><path
         id="path396"
         d="M 0,0 H 596 V 842 H 0 Z" /></clipPath><clipPath
       id="clipPath408"
       clipPathUnits="userSpaceOnUse"><path
         id="path406"
         d="M 302.164,467.348 H 304 v 2.16 h -1.836 z" /></clipPath><clipPath
       id="clipPath420"
       clipPathUnits="userSpaceOnUse"><path
         id="path418"
         d="m 302,469 h 1 v 1 h -1 z" /></clipPath><clipPath
       id="clipPath426"
       clipPathUnits="userSpaceOnUse"><path
         id="path424"
         d="m 302.52,469.238 0.011,0.012 z" /></clipPath><clipPath
       id="clipPath436"
       clipPathUnits="userSpaceOnUse"><path
         id="path434"
         d="M 0,0 H 596 V 842 H 0 Z" /></clipPath><clipPath
       id="clipPath446"
       clipPathUnits="userSpaceOnUse"><path
         id="path444"
         d="m 302.164,469 h 0.719 v 0.508 h -0.719 z" /></clipPath><clipPath
       id="clipPath458"
       clipPathUnits="userSpaceOnUse"><path
         id="path456"
         d="m 297,472 h 3 v 4 h -3 z" /></clipPath><clipPath
       id="clipPath464"
       clipPathUnits="userSpaceOnUse"><path
         id="path462"
         d="m 297.742,474.613 0.52,0.586 1.586,-1.785 -0.52,-0.586 z" /></clipPath><clipPath
       id="clipPath474"
       clipPathUnits="userSpaceOnUse"><path
         id="path472"
         d="M 0,0 H 596 V 842 H 0 Z" /></clipPath><clipPath
       id="clipPath484"
       clipPathUnits="userSpaceOnUse"><path
         id="path482"
         d="M 297.363,472.387 H 300 v 3.121 h -2.637 z" /></clipPath><clipPath
       id="clipPath496"
       clipPathUnits="userSpaceOnUse"><path
         id="path494"
         d="m 299,472 h 1 v 2 h -1 z" /></clipPath><clipPath
       id="clipPath502"
       clipPathUnits="userSpaceOnUse"><path
         id="path500"
         d="m 299.328,472.828 0.52,0.586 0.004,-0.004 -0.52,-0.586 z" /></clipPath><clipPath
       id="clipPath512"
       clipPathUnits="userSpaceOnUse"><path
         id="path510"
         d="M 0,0 H 596 V 842 H 0 Z" /></clipPath><clipPath
       id="clipPath522"
       clipPathUnits="userSpaceOnUse"><path
         id="path520"
         d="M 299.043,472.387 H 300 v 1.441 h -0.957 z" /></clipPath><clipPath
       id="clipPath534"
       clipPathUnits="userSpaceOnUse"><path
         id="path532"
         d="m 299,469 h 4 v 5 h -4 z" /></clipPath><clipPath
       id="clipPath540"
       clipPathUnits="userSpaceOnUse"><path
         id="path538"
         d="m 299.332,472.824 0.52,0.586 v -0.004 l -0.504,-0.57 2.664,-3 -0.016,-0.012 z" /></clipPath><clipPath
       id="clipPath550"
       clipPathUnits="userSpaceOnUse"><path
         id="path548"
         d="M 0,0 H 596 V 842 H 0 Z" /></clipPath><clipPath
       id="clipPath560"
       clipPathUnits="userSpaceOnUse"><path
         id="path558"
         d="M 299.043,470 H 302 v 3.828 h -2.957 z" /></clipPath><clipPath
       id="clipPath572"
       clipPathUnits="userSpaceOnUse"><path
         id="path570"
         d="m 301,469 h 2 v 1 h -2 z" /></clipPath><clipPath
       id="clipPath578"
       clipPathUnits="userSpaceOnUse"><path
         id="path576"
         d="m 301.996,469.824 0.016,0.012 0.519,-0.586 -0.011,-0.012 z" /></clipPath><clipPath
       id="clipPath588"
       clipPathUnits="userSpaceOnUse"><path
         id="path586"
         d="M 0,0 H 596 V 842 H 0 Z" /></clipPath><clipPath
       id="clipPath598"
       clipPathUnits="userSpaceOnUse"><path
         id="path596"
         d="m 302,469 h 0.883 v 1 H 302 Z" /></clipPath><clipPath
       id="clipPath610"
       clipPathUnits="userSpaceOnUse"><path
         id="path608"
         d="M 267.941,416.945 H 392.593 V 527.648 H 267.941 Z" /></clipPath><clipPath
       id="clipPath620"
       clipPathUnits="userSpaceOnUse"><path
         id="path618"
         d="M 0,0 H 596 V 842 H 0 Z" /></clipPath><clipPath
       id="clipPath632"
       clipPathUnits="userSpaceOnUse"><path
         id="path630"
         d="m 339.785,429.012 h 50.336 v 8.367 h -50.336 z" /></clipPath><clipPath
       id="clipPath642"
       clipPathUnits="userSpaceOnUse"><path
         id="path640"
         d="M 0,0 H 596 V 842 H 0 Z" /></clipPath><clipPath
       id="clipPath656"
       clipPathUnits="userSpaceOnUse"><path
         id="path654"
         d="m 340,429 h 6 v 5 h -6 z" /></clipPath><clipPath
       id="clipPath662"
       clipPathUnits="userSpaceOnUse"><path
         id="path660"
         d="m 345.656,429.012 c -2.672,0 -4.687,1.59 -5.144,4.035 h 0.027 c 0.465,-2.445 2.481,-4.035 5.152,-4.035 z" /></clipPath><clipPath
       id="clipPath672"
       clipPathUnits="userSpaceOnUse"><path
         id="path670"
         d="M 0,0 H 596 V 842 H 0 Z" /></clipPath><clipPath
       id="clipPath682"
       clipPathUnits="userSpaceOnUse"><path
         id="path680"
         d="m 340.086,429 h 38.641 v 4.508 h -38.641 z" /></clipPath><clipPath
       id="clipPath694"
       clipPathUnits="userSpaceOnUse"><path
         id="path692"
         d="m 340,429 h 51 v 5 h -51 z" /></clipPath><clipPath
       id="clipPath700"
       clipPathUnits="userSpaceOnUse"><path
         id="path698"
         d="m 345.691,429.012 c -2.671,0 -4.687,1.59 -5.152,4.035 h 49.582 c -0.652,-0.949 -1.5,-1.727 -2.547,-2.332 -1.961,-1.133 -5,-1.703 -9.105,-1.703 z" /></clipPath><clipPath
       id="clipPath710"
       clipPathUnits="userSpaceOnUse"><path
         id="path708"
         d="M 0,0 H 596 V 842 H 0 Z" /></clipPath><clipPath
       id="clipPath720"
       clipPathUnits="userSpaceOnUse"><path
         id="path718"
         d="M 340.086,429 H 390 v 4.508 h -49.914 z" /></clipPath><clipPath
       id="clipPath732"
       clipPathUnits="userSpaceOnUse"><path
         id="path730"
         d="M 267.941,416.945 H 392.593 V 527.648 H 267.941 Z" /></clipPath><clipPath
       id="clipPath742"
       clipPathUnits="userSpaceOnUse"><path
         id="path740"
         d="M 0,0 H 596 V 842 H 0 Z" /></clipPath><clipPath
       id="clipPath754"
       clipPathUnits="userSpaceOnUse"><path
         id="path752"
         d="m 267.949,457.668 h 21.406 v 22.102 h -21.406 z" /></clipPath><clipPath
       id="clipPath764"
       clipPathUnits="userSpaceOnUse"><path
         id="path762"
         d="M 0,0 H 596 V 842 H 0 Z" /></clipPath><clipPath
       id="clipPath780"
       clipPathUnits="userSpaceOnUse"><path
         id="path778"
         d="m 267,457 h 4 v 2 h -4 z" /></clipPath><clipPath
       id="clipPath786"
       clipPathUnits="userSpaceOnUse"><path
         id="path784"
         d="m 269.246,457.668 c -0.629,0.012 -1.23,0.477 -1.293,1.199 0.094,-0.691 0.699,-1.133 1.32,-1.133 0.325,0 0.657,0.121 0.918,0.387 l -0.218,-0.25 c -0.207,-0.133 -0.434,-0.199 -0.66,-0.203 z" /></clipPath><clipPath
       id="clipPath796"
       clipPathUnits="userSpaceOnUse"><path
         id="path794"
         d="M 0,0 H 596 V 842 H 0 Z" /></clipPath><clipPath
       id="clipPath806"
       clipPathUnits="userSpaceOnUse"><path
         id="path804"
         d="m 268,457.266 h 2 V 459 h -2 z" /></clipPath><clipPath
       id="clipPath818"
       clipPathUnits="userSpaceOnUse"><path
         id="path816"
         d="m 267,457 h 23 v 23 h -23 z" /></clipPath><clipPath
       id="clipPath824"
       clipPathUnits="userSpaceOnUse"><path
         id="path822"
         d="m 267.953,458.867 c -0.004,0.039 -0.004,0.082 -0.004,0.121 v 3.903 l 7.352,8.308 7.586,8.571 h 6.468 l -1.121,-1.262 -18.043,-20.387 c -0.261,-0.266 -0.593,-0.387 -0.918,-0.387 -0.621,0 -1.226,0.442 -1.32,1.133" /></clipPath><clipPath
       id="clipPath834"
       clipPathUnits="userSpaceOnUse"><path
         id="path832"
         d="M 0,0 H 596 V 842 H 0 Z" /></clipPath><clipPath
       id="clipPath844"
       clipPathUnits="userSpaceOnUse"><path
         id="path842"
         d="m 268,457.266 h 21.684 V 480 H 268 Z" /></clipPath><clipPath
       id="clipPath856"
       clipPathUnits="userSpaceOnUse"><path
         id="path854"
         d="M 267.941,416.945 H 392.593 V 527.648 H 267.941 Z" /></clipPath><clipPath
       id="clipPath866"
       clipPathUnits="userSpaceOnUse"><path
         id="path864"
         d="M 0,0 H 596 V 842 H 0 Z" /></clipPath><clipPath
       id="clipPath878"
       clipPathUnits="userSpaceOnUse"><path
         id="path876"
         d="m 335,455 h 3 v 4 h -3 z" /></clipPath><clipPath
       id="clipPath884"
       clipPathUnits="userSpaceOnUse"><path
         id="path882"
         d="m 337.102,455.578 -2.032,2.293 c 0.207,-0.133 0.434,-0.199 0.66,-0.203 h 0.063 c 0.437,0.008 0.863,0.234 1.102,0.617 0.07,0.024 0.14,0.055 0.207,0.09 z" /></clipPath><clipPath
       id="clipPath894"
       clipPathUnits="userSpaceOnUse"><path
         id="path892"
         d="M 0,0 H 596 V 842 H 0 Z" /></clipPath><clipPath
       id="clipPath904"
       clipPathUnits="userSpaceOnUse"><path
         id="path902"
         d="m 335,455.105 h 2 v 3.602 h -2 z" /></clipPath><clipPath
       id="clipPath916"
       clipPathUnits="userSpaceOnUse"><path
         id="path914"
         d="m 336,458 h 2 v 2 h -2 z" /></clipPath><clipPath
       id="clipPath922"
       clipPathUnits="userSpaceOnUse"><path
         id="path920"
         d="m 337.086,458.867 c 0.012,0.059 0.016,0.121 0.016,0.184 v -0.676 c -0.067,-0.035 -0.137,-0.066 -0.207,-0.09 0.105,0.168 0.175,0.363 0.191,0.582" /></clipPath><clipPath
       id="clipPath932"
       clipPathUnits="userSpaceOnUse"><path
         id="path930"
         d="M 0,0 H 596 V 842 H 0 Z" /></clipPath><clipPath
       id="clipPath942"
       clipPathUnits="userSpaceOnUse"><path
         id="path940"
         d="M 336.484,458 H 337 v 5 h -0.516 z" /></clipPath><clipPath
       id="clipPath954"
       clipPathUnits="userSpaceOnUse"><path
         id="path952"
         d="m 315,458 h 23 v 22 h -23 z" /></clipPath><clipPath
       id="clipPath960"
       clipPathUnits="userSpaceOnUse"><path
         id="path958"
         d="m 337.094,458.988 v 3.903 l -7.336,8.297 7.344,-8.297 v -3.84 c 0,-0.063 -0.004,-0.125 -0.016,-0.184 0.004,0.039 0.008,0.082 0.008,0.121 m -21.461,20.844 h 6.469 l 0.054,-0.062 h -6.468 l 1.117,-1.262 z" /></clipPath><clipPath
       id="clipPath970"
       clipPathUnits="userSpaceOnUse"><path
         id="path968"
         d="M 0,0 H 596 V 842 H 0 Z" /></clipPath><clipPath
       id="clipPath980"
       clipPathUnits="userSpaceOnUse"><path
         id="path978"
         d="M 315.363,458.469 H 337 V 480 h -21.637 z" /></clipPath><clipPath
       id="clipPath992"
       clipPathUnits="userSpaceOnUse"><path
         id="path990"
         d="m 315.688,457.668 h 21.406 v 22.102 h -21.406 z" /></clipPath><clipPath
       id="clipPath1002"
       clipPathUnits="userSpaceOnUse"><path
         id="path1000"
         d="M 0,0 H 596 V 842 H 0 Z" /></clipPath><clipPath
       id="clipPath1016"
       clipPathUnits="userSpaceOnUse"><path
         id="path1014"
         d="m 334,457 h 3 v 2 h -3 z" /></clipPath><clipPath
       id="clipPath1022"
       clipPathUnits="userSpaceOnUse"><path
         id="path1020"
         d="m 335.73,457.668 c -0.226,0.004 -0.453,0.07 -0.66,0.203 l -0.218,0.25 c 0.261,-0.266 0.593,-0.387 0.918,-0.387 0.414,0 0.82,0.196 1.074,0.532 0.019,0.007 0.035,0.011 0.051,0.019 -0.239,-0.383 -0.665,-0.609 -1.102,-0.617 z" /></clipPath><clipPath
       id="clipPath1032"
       clipPathUnits="userSpaceOnUse"><path
         id="path1030"
         d="M 0,0 H 596 V 842 H 0 Z" /></clipPath><clipPath
       id="clipPath1042"
       clipPathUnits="userSpaceOnUse"><path
         id="path1040"
         d="m 335,457.266 h 2 v 1.441 h -2 z" /></clipPath><clipPath
       id="clipPath1054"
       clipPathUnits="userSpaceOnUse"><path
         id="path1052"
         d="m 336,458 h 2 v 1 h -2 z" /></clipPath><clipPath
       id="clipPath1060"
       clipPathUnits="userSpaceOnUse"><path
         id="path1058"
         d="m 337.086,458.867 c -0.016,-0.219 -0.086,-0.414 -0.191,-0.582 -0.016,-0.008 -0.032,-0.012 -0.051,-0.019 0.125,0.172 0.215,0.371 0.242,0.601" /></clipPath><clipPath
       id="clipPath1070"
       clipPathUnits="userSpaceOnUse"><path
         id="path1068"
         d="M 0,0 H 596 V 842 H 0 Z" /></clipPath><clipPath
       id="clipPath1080"
       clipPathUnits="userSpaceOnUse"><path
         id="path1078"
         d="M 336.484,458 H 337 v 1 h -0.516 z" /></clipPath><clipPath
       id="clipPath1092"
       clipPathUnits="userSpaceOnUse"><path
         id="path1090"
         d="m 315,457 h 23 v 23 h -23 z" /></clipPath><clipPath
       id="clipPath1098"
       clipPathUnits="userSpaceOnUse"><path
         id="path1096"
         d="m 334.852,458.121 -18.047,20.387 -1.117,1.262 h 6.468 l 7.586,-8.571 7.352,-8.308 v -3.903 c 0,-0.039 -0.004,-0.082 -0.008,-0.121 -0.027,-0.23 -0.117,-0.429 -0.242,-0.601 -0.254,-0.336 -0.66,-0.532 -1.074,-0.532 -0.325,0 -0.657,0.121 -0.918,0.387" /></clipPath><clipPath
       id="clipPath1108"
       clipPathUnits="userSpaceOnUse"><path
         id="path1106"
         d="M 0,0 H 596 V 842 H 0 Z" /></clipPath><clipPath
       id="clipPath1118"
       clipPathUnits="userSpaceOnUse"><path
         id="path1116"
         d="M 315.363,457.266 H 337 V 480 h -21.637 z" /></clipPath><clipPath
       id="clipPath1130"
       clipPathUnits="userSpaceOnUse"><path
         id="path1128"
         d="M 267.941,416.945 H 392.593 V 527.648 H 267.941 Z" /></clipPath><clipPath
       id="clipPath1140"
       clipPathUnits="userSpaceOnUse"><path
         id="path1138"
         d="M 0,0 H 596 V 842 H 0 Z" /></clipPath></defs><g
     inkscape:groupmode="layer"
     id="layer2"
     inkscape:label="Layer 1"><rect
       style="fill:#ffffff;fill-opacity:1;stroke:none;stroke-width:11.0496;stroke-dasharray:44.1982, 11.0496"
       id="rect541"
       width="479.2626"
       height="479.28433"
       x="0.16971473"
       y="0.33233207" /></g><g
     transform="matrix(2.7710593,0,0,3.0843862,-976.36677,-1701.7553)"
     style="display:inline"
     id="layer1"><path
       d="m 267.941,478.516 v -19.461 c 0,-1.211 1.504,-1.782 2.305,-0.875 l 19.164,21.652 h -20.148 c -0.731,0 -1.321,-0.59 -1.321,-1.316"
       style="fill:#29b1eb;fill-opacity:1;fill-rule:nonzero;stroke:none"
       id="path32"
       transform="matrix(1.3333333,0,0,1.3333333,0,3.3396326e-5)" /><path
       d="m 300.07,451.641 -29.949,-33.836 c -0.758,-0.86 -2.18,-0.325 -2.18,0.82 v 18.734 l 34.59,39.075 34.59,-39.075 v -18.734 c 0,-1.145 -1.418,-1.68 -2.18,-0.82 l -29.949,33.836 c -1.308,1.476 -3.613,1.476 -4.922,0"
       style="display:inline;fill:#175b9a;fill-opacity:1;fill-rule:nonzero;stroke:none"
       id="path30"
       transform="matrix(1.3333333,0,0,1.3333333,0,3.3396326e-5)" /><g
       id="g850"
       transform="matrix(1.3333333,0,0,1.3333333,0,3.3396326e-5)"><g
         clip-path="url(#clipPath856)"
         id="g852"><g
           id="g858"><g
             id="g860"><g
               clip-path="url(#clipPath866)"
               id="g862"><g
                 id="g868"><path
                   id="path870"
                   style="fill:#29b1eb;fill-opacity:1;fill-rule:nonzero;stroke:none"
                   d="m 337.102,478.516 v -19.461 c 0,-1.211 -1.508,-1.782 -2.309,-0.875 l -19.16,21.652 h 20.144 c 0.731,0 1.325,-0.59 1.325,-1.316" /></g></g></g></g></g></g><g
       transform="matrix(1.3333333,0,0,1.3333333,0,3.3396326e-5)"
       id="g1132"><g
         id="g1134"><g
           clip-path="url(#clipPath1140)"
           id="g1136"><g
             id="g1142"><path
               id="path1144"
               style="fill:#3e4445;fill-opacity:1;fill-rule:nonzero;stroke:none"
               d="m 333.395,503.043 -0.036,4.406 H 322 l 0.035,-4.406 c -0.004,-0.965 0.164,-1.641 0.508,-2.031 0.34,-0.387 0.949,-0.582 1.82,-0.582 h 6.68 c 1.238,0 1.969,0.457 2.191,1.375 0.079,0.32 0.129,0.734 0.161,1.238 m 12.644,-7.641 c -1.379,-0.871 -3.426,-1.308 -6.133,-1.308 h -24.715 c -3.535,0 -5.98,0.758 -7.336,2.273 -1.355,1.512 -2.046,4.016 -2.074,7.504 l -0.14,12.805 c 0.007,1.746 0.152,3.191 0.429,4.34 0.453,1.879 1.371,3.257 2.754,4.129 1.379,0.871 3.426,1.308 6.133,1.308 h 29.5 c 1.731,0 3.035,-1.047 3.305,-2.644 l 0.629,-3.707 h -5.993 c -0.367,0.011 -0.753,0.015 -1.156,0.015 h -15.629 c -2.023,0 -3.203,-0.711 -3.547,-2.133 -0.078,-0.32 -0.125,-0.711 -0.144,-1.171 l 0.023,-3.028 h 27.196 l 0.082,-9.914 c -0.008,-1.746 -0.157,-3.215 -0.446,-4.41 -0.441,-1.832 -1.355,-3.188 -2.738,-4.059" /><path
               id="path1146"
               style="fill:#3e4445;fill-opacity:1;fill-rule:nonzero;stroke:none"
               d="m 364.484,494.094 c -3.535,0 -6.117,0.894 -7.75,2.683 -1.632,1.793 -2.461,4.246 -2.488,7.368 l -0.133,12.257 c -0.011,1.286 0.11,2.453 0.367,3.508 0.497,2.067 1.551,3.676 3.161,4.82 1.609,1.149 3.812,1.723 6.613,1.723 h 22.195 c 1.77,0 3.106,-1.082 3.367,-2.726 l 0.582,-3.696 h -5.453 c -0.836,0.059 -1.816,0.086 -2.945,0.086 h -7.918 c -2.019,0 -3.199,-0.711 -3.547,-2.133 -0.074,-0.32 -0.125,-0.711 -0.144,-1.171 l 0.074,-13.083 c 0.031,-1.191 0.344,-2.039 0.933,-2.546 0.59,-0.504 1.528,-0.758 2.813,-0.758 h 9.293 c 0.754,0 1.453,0.023 2.105,0.066 2.942,0.192 4.903,-2.015 4.403,-4.914 l -0.258,-1.484 z" /><path
               id="path1148"
               style="fill:#3e4445;fill-opacity:1;fill-rule:nonzero;stroke:none"
               d="m 306.648,485.785 c -0.257,-1.82 -2.07,-3.398 -3.898,-3.398 l -33.262,0.015 c -0.855,0 -1.55,0.696 -1.55,1.551 v 5.688 l 8.8,0.047 -0.074,8.933 -0.062,22.031 c -0.012,2.953 2.914,5.801 5.953,5.801 h 10.668 l 0.082,-36.742 0.234,0.008 v -0.031 l 13.176,-0.047 z" /></g></g></g></g><path
       id="path1150"
       style="fill:#c5c6b8;fill-opacity:0.319063;fill-rule:nonzero;stroke:none;stroke-width:1.33333"
       d="m 399.13599,630.42668 50.35867,-56.67599 v 9.39466 l -46.12,52.1 z" /><g
       transform="matrix(1.3333333,0,0,1.3333333,0,3.3396326e-5)"
       id="g1152"><path
         id="path1154"
         style="fill:none;stroke:#404024;stroke-width:0.0283465;stroke-linecap:butt;stroke-linejoin:miter;stroke-miterlimit:4;stroke-dasharray:none;stroke-opacity:1"
         d="m 299.352,472.82 37.769,-42.507 v 7.046 l -34.59,39.075 z" /></g><path
       id="path5682"
       d="m 289.41,479.832 -6.48314,0.005 -14.98642,-16.9523 -0.003,-3.81738 c 0.0255,-1.44017 1.63126,-1.66507 2.38249,-0.80546 l 19.09,21.57"
       style="fill:#ffffff;fill-opacity:0.309904;stroke:none;stroke-width:0.075;stroke-linecap:butt;stroke-linejoin:miter;stroke-miterlimit:4;stroke-dasharray:none;stroke-opacity:1"
       transform="matrix(1.3333333,0,0,1.3333333,0,3.3396326e-5)" /><path
       id="path5682-2"
       d="m 315.6706,479.75784 6.48314,0.005 14.98642,-16.9523 0.003,-3.81738 c -0.0255,-1.44017 -1.63126,-1.66507 -2.38249,-0.80546 l -19.09,21.57"
       style="fill:#ffffff;fill-opacity:0.309904;stroke:none;stroke-width:0.075;stroke-linecap:butt;stroke-linejoin:miter;stroke-miterlimit:4;stroke-dasharray:none;stroke-opacity:1"
       transform="matrix(1.3333333,0,0,1.3333333,0,3.3396326e-5)" /><g
       id="g1156"
       transform="matrix(1.3333333,0,0,1.3333333,0,3.3396326e-5)"><path
         id="path1158"
         style="fill:#f5f6e7;fill-opacity:0.241519;fill-rule:nonzero;stroke:none"
         d="m 267.941,437.359 v -7.043 l 37.801,42.536 -3.211,3.582 z" /><g
         id="g1160"><path
           id="path1162"
           style="fill:none;stroke:#585811;stroke-width:0.0283465;stroke-linecap:butt;stroke-linejoin:miter;stroke-miterlimit:4;stroke-dasharray:none;stroke-opacity:1"
           d="m 267.941,437.359 v -7.043 l 37.801,42.536 -3.211,3.582 z" /></g></g><path
       d="m 507.64377,628.46946 h -28.93038 l 0.0836,-8.38579 c 0.0152,-1.35142 0.22305,-2.41344 0.61466,-3.18741 0.38146,-0.778 1.16846,-1.20335 2.36101,-1.27738 l 24.21215,-1.28277 c 5.41145,-0.27325 9.14371,-1.32989 11.22845,-3.17529 2.07841,-1.84542 3.0986,-5.28453 3.07452,-10.31197 l 0.0735,-13.60167 c 0.0152,-2.55477 -0.16349,-4.64786 -0.54368,-6.27251 -0.71351,-3.1228 -2.31793,-5.44202 -4.79808,-6.95632 -2.48521,-1.52504 -6.3366,-2.29228 -11.53895,-2.29228 h -41.58454 c -3.4205,0 -5.99442,2.18729 -6.54951,5.53623 l -0.93528,5.72603 h 37.65334 c 1.47009,0 2.56506,0.19921 3.28743,0.58821 0.73252,0.38902 1.17861,0.9678 1.36617,1.76196 0.005,0.0633 0,0.2046 -0.0102,0.41593 0.0254,0.14133 0.0646,0.29343 0.0988,0.42534 l -0.0444,3.71776 c -0.024,1.35679 -0.29148,2.28152 -0.80221,2.82263 -0.50946,0.53167 -1.52459,0.83184 -3.04917,0.89914 l -25.975,1.48872 c -4.59909,0.28401 -7.81683,1.37161 -9.65317,3.24394 -1.83255,1.87771 -2.78684,5.57393 -2.85147,11.10477 l -0.12419,30.28576 h 56.5098 c 4.7423,0 8.31615,-3.02858 9.074,-7.66565 l 0.59438,-3.65449 c 0,0 -11.92042,0.0472 -12.84176,0.0472"
       style="display:inline;fill:#3e4445;fill-opacity:1;fill-rule:nonzero;stroke:none;stroke-width:1.30608"
       id="path28" /></g></svg>
